<svg width="32" height="32" viewBox="0 0 32 32" fill="none" xmlns="http://www.w3.org/2000/svg">
<path d="M30.8965 4.9375H1.10352C0.494629 4.93921 0.00170899 5.43237 0 6.04102V25.9031C0.00170899 26.5117 0.494629 27.0046 1.10352 27.0063H30.8965C31.5054 27.0046 31.9983 26.5117 32 25.9031V6.04102C31.9983 5.43237 31.5054 4.93921 30.8965 4.9375Z" fill="#802F34"/>
<path d="M32 6.04102V12.1099H7.17236V4.9375H30.8965C31.5054 4.93921 31.9983 5.43237 32 6.04102Z" fill="#24AE5F"/>
<path d="M32 19.834V25.9031C31.9983 26.5117 31.5054 27.0046 30.8965 27.0063H7.17236V19.834H32Z" fill="#2C2F38"/>
<path d="M7.17236 12.1099H32V19.834H7.17236V12.1099Z" fill="#ECF0F1"/>
</svg>
