<svg width="80" height="80" viewBox="0 0 80 80" fill="none" xmlns="http://www.w3.org/2000/svg">
<path d="M35.2634 63.0948L34.1136 61.6042L32.4496 62.501C31.5916 62.9641 30.6364 63.2256 29.6587 63.2651C28.681 63.3045 27.7074 63.1207 26.8138 62.7281C25.9195 62.3276 25.1299 61.7312 24.5054 60.9845C23.881 60.2377 23.438 59.3604 23.2104 58.4195L22.7732 56.6139L20.8824 56.7654H20.3763C19.4827 56.7641 18.5993 56.5775 17.7838 56.2176C16.9683 55.8577 16.239 55.3327 15.6434 54.6768C14.9965 53.9571 14.5231 53.1028 14.2587 52.1777L8.62294 57.7578C8.36663 58.012 8.18017 58.3262 8.08109 58.6708C7.98202 59.0155 7.97358 59.3792 8.05657 59.728C8.13956 60.0767 8.31126 60.3989 8.55552 60.6644C8.79979 60.9298 9.1086 61.1298 9.45293 61.2454L19.769 64.6533L23.2064 74.8929C23.3206 75.232 23.5207 75.5369 23.7877 75.7789C24.0548 76.0209 24.38 76.1919 24.7327 76.276C24.8921 76.3122 25.055 76.3309 25.2186 76.3318C25.7783 76.34 26.3186 76.1293 26.7207 75.7458L37.5793 64.9841C36.6651 64.5456 35.871 63.8977 35.2634 63.0948ZM72.0135 57.7698L66.3777 52.1896C66.1133 53.1147 65.64 53.9691 64.9931 54.6888C64.3975 55.3447 63.6682 55.8697 62.8527 56.2295C62.0372 56.5894 61.1538 56.7761 60.2601 56.7773H59.75L57.8633 56.6259L57.426 58.4553C57.196 59.3947 56.752 60.2704 56.1278 61.0161C55.5036 61.7618 54.7153 62.3582 53.8227 62.76C52.9297 63.155 51.9557 63.3401 50.9776 63.3007C49.9995 63.2612 49.0441 62.9984 48.1869 62.5328L46.5229 61.636L45.373 63.1267C44.7617 63.918 43.9679 64.5546 43.0572 64.9841L53.9158 75.7458C54.1118 75.941 54.345 76.096 54.6021 76.2021C54.8592 76.3081 55.1351 76.363 55.4138 76.3636C55.5787 76.363 55.743 76.3443 55.9037 76.3078C56.2565 76.2238 56.5817 76.0528 56.8488 75.8108C57.1158 75.5688 57.3159 75.2639 57.4301 74.9248L60.8674 64.6892L71.1835 61.2773C71.5263 61.1594 71.8331 60.9577 72.0751 60.6913C72.3172 60.4248 72.4866 60.1023 72.5675 59.7538C72.6484 59.4054 72.6381 59.0424 72.5377 58.6989C72.4373 58.3554 72.25 58.0425 71.9933 57.7897L72.0135 57.7698ZM37.47 29.036C37.1933 29.0316 36.9223 29.1138 36.696 29.2706C36.4698 29.4275 36.2999 29.651 36.2108 29.9089C35.9409 30.4908 35.806 31.567 35.806 33.1374C35.806 34.7318 35.9517 35.8079 36.2351 36.3899C36.3281 36.6414 36.4962 36.8593 36.7173 37.0151C36.9384 37.1709 37.2022 37.2572 37.474 37.2627C37.6465 37.2649 37.8176 37.2332 37.9775 37.1696C38.1373 37.1059 38.2828 37.0116 38.4052 36.8921C38.7086 36.5659 38.9097 36.1603 38.9842 35.7242C39.1313 34.9008 39.1937 34.0649 39.1704 33.2291C39.1704 31.575 39.0287 30.439 38.7413 29.889C38.6411 29.6374 38.4662 29.4215 38.2394 29.2693C38.0126 29.1171 37.7444 29.0358 37.47 29.036ZM56.8268 34.9231C56.7003 34.9152 56.5739 34.9401 56.4602 34.9954C56.3466 35.0506 56.2496 35.1343 56.179 35.238C55.9107 35.7026 55.7894 36.2356 55.8309 36.7685C55.7889 37.3028 55.9101 37.8372 56.179 38.303C56.2516 38.404 56.3493 38.4848 56.4627 38.5379C56.5762 38.5909 56.7015 38.6144 56.8268 38.606C56.9532 38.6135 57.0794 38.5897 57.194 38.5368C57.3086 38.4838 57.4078 38.4035 57.4827 38.303C57.75 37.8366 57.8698 37.3023 57.8269 36.7685C57.8687 36.2335 57.749 35.6982 57.4827 35.23C57.408 35.1291 57.3089 35.0482 57.1944 34.9946C57.0798 34.941 56.9535 34.9164 56.8268 34.9231ZM47.7011 28.1831C47.5738 28.176 47.4468 28.2005 47.3315 28.2541C47.2163 28.3077 47.1165 28.3887 47.0411 28.49C46.7744 28.9551 46.6546 29.488 46.697 30.0205C46.654 30.5543 46.7738 31.0887 47.0411 31.5551C47.1153 31.658 47.2147 31.7409 47.33 31.7959C47.4454 31.8509 47.573 31.8764 47.7011 31.8699C47.8274 31.8766 47.9534 31.8512 48.0668 31.796C48.1803 31.7409 48.2774 31.6579 48.3489 31.5551C48.6161 31.0887 48.736 30.5543 48.693 30.0205C48.7344 29.4881 48.6147 28.9555 48.3489 28.49C48.2762 28.3889 48.1786 28.3077 48.0653 28.254C47.952 28.2003 47.8266 28.1759 47.7011 28.1831Z" fill="white"/>
<path d="M69.1495 29.4709C69.1179 29.15 69.01 28.8405 68.8342 28.5666C68.6584 28.2926 68.4195 28.0616 68.1361 27.8915L63.3591 25.0762L65.5044 20.0577C65.6296 19.7613 65.6836 19.4415 65.6624 19.1221C65.6412 18.8027 65.5452 18.4921 65.3818 18.2137C65.2172 17.9374 64.9889 17.7014 64.7146 17.5241C64.4404 17.3467 64.1276 17.2328 63.8004 17.191L58.2674 16.4882L58.1285 11.055C58.1211 10.7358 58.0381 10.4224 57.8858 10.139C57.7335 9.85567 57.5159 9.6098 57.2499 9.42034C56.9842 9.23192 56.6769 9.10568 56.3521 9.05155C56.0274 8.99742 55.694 9.01688 55.3784 9.1084L50.0293 10.6602L47.6469 5.75216C47.5077 5.4634 47.3012 5.20975 47.0435 5.01111C46.7858 4.81247 46.4839 4.67424 46.1616 4.60729C45.8393 4.54034 45.5053 4.54648 45.1859 4.62523C44.8665 4.70398 44.5703 4.8532 44.3206 5.06117L40.0667 8.59904L35.8291 5.04537C35.5794 4.8374 35.2832 4.68819 34.9637 4.60944C34.6443 4.53069 34.3104 4.52455 33.9881 4.5915C33.6658 4.65845 33.3639 4.79667 33.1062 4.99531C32.8485 5.19395 32.6419 5.44761 32.5027 5.73636L30.1204 10.6602L24.7713 9.1084C24.4556 9.01688 24.1223 8.99742 23.7975 9.05155C23.4728 9.10568 23.1654 9.23192 22.8997 9.42034C22.6332 9.60959 22.415 9.85533 22.262 10.1387C22.109 10.4221 22.0252 10.7355 22.0171 11.055L21.8822 16.4882L16.3656 17.191C16.0384 17.2328 15.7256 17.3467 15.4514 17.5241C15.1771 17.7014 14.9488 17.9374 14.7842 18.2137C14.6208 18.4921 14.5248 18.8027 14.5036 19.1221C14.4824 19.4415 14.5364 19.7613 14.6616 20.0577L16.7742 25.0762L12.0258 27.9073C11.7445 28.076 11.5068 28.3047 11.331 28.5758C11.1552 28.847 11.046 29.1534 11.0117 29.4716C10.9774 29.7899 11.0189 30.1115 11.133 30.4118C11.2472 30.7121 11.431 30.9832 11.6703 31.2043L15.724 34.9396L12.5571 39.4133C12.3685 39.6771 12.2452 39.9793 12.1967 40.2965C12.1482 40.6137 12.1757 40.9374 12.2772 41.2426C12.3787 41.5479 12.5514 41.8265 12.782 42.057C13.0126 42.2876 13.295 42.4638 13.6073 42.5721L18.8705 44.3569L17.8449 49.6992C17.7847 50.0143 17.7998 50.3386 17.8891 50.6472C17.9783 50.9558 18.1393 51.2406 18.3598 51.48C18.5797 51.7176 18.8534 51.9028 19.1596 52.0213C19.4658 52.1398 19.7962 52.1883 20.1251 52.1631L25.6866 51.7288L26.9902 57.0237C27.0641 57.3343 27.2115 57.6242 27.4206 57.8706C27.6298 58.117 27.8952 58.3133 28.196 58.4441C28.4968 58.5749 28.8248 58.6366 29.1544 58.6245C29.484 58.6124 29.8062 58.5267 30.0959 58.3741L34.9995 55.7721L38.3912 60.0878C38.5896 60.3428 38.8466 60.5498 39.142 60.6924C39.4374 60.8349 39.763 60.9091 40.0932 60.9091C40.4234 60.9091 40.749 60.8349 41.0444 60.6924C41.3398 60.5498 41.5968 60.3428 41.7952 60.0878L45.1828 55.7721L50.0865 58.3741C50.3759 58.5275 50.6983 58.6139 51.0282 58.6264C51.358 58.639 51.6864 58.5774 51.9874 58.4465C52.2885 58.3156 52.554 58.1189 52.763 57.8721C52.9721 57.6252 53.119 57.3348 53.1921 57.0237L54.4875 51.7406L60.0491 52.175C60.3779 52.2002 60.7083 52.1516 61.0145 52.0331C61.3208 51.9147 61.5945 51.7294 61.8144 51.4919C62.0349 51.2525 62.1959 50.9676 62.2851 50.659C62.3743 50.3504 62.3894 50.0262 62.3293 49.7111L61.2873 44.3569L66.5546 42.5524C66.8669 42.444 67.1493 42.2678 67.3799 42.0373C67.6105 41.8068 67.7832 41.5281 67.8847 41.2229C67.9862 40.9176 68.0138 40.5939 67.9652 40.2767C67.9167 39.9596 67.7934 39.6574 67.6048 39.3936L64.4379 34.9199L68.4916 31.1846C68.7278 30.9653 68.9096 30.6973 69.0235 30.4005C69.1375 30.1038 69.1805 29.786 69.1495 29.4709ZM29.9733 37.1074C29.5798 37.8298 28.9665 38.4182 28.2161 38.7934C27.3261 39.2104 26.3442 39.411 25.3557 39.3778C24.625 39.3897 23.8959 39.3114 23.1858 39.1448C22.6338 39.0117 22.1135 38.7771 21.6534 38.4538C21.2507 38.1673 20.9035 37.8144 20.6277 37.4114C20.3362 36.9626 20.1158 36.4741 19.9739 35.9623L23.5658 35.5675C23.6035 36.0506 23.8145 36.5058 24.1624 36.8547C24.3134 36.9962 24.4919 37.1074 24.6875 37.182C24.8832 37.2565 25.0922 37.2929 25.3025 37.289C25.5358 37.2934 25.767 37.247 25.9792 37.1534C26.1914 37.0597 26.3791 36.9212 26.5284 36.7481C26.886 36.2806 27.0585 35.7049 27.0147 35.1252C27.0659 34.5454 26.891 33.968 26.5244 33.5063C26.3591 33.3347 26.1574 33.1997 25.9332 33.1104C25.7089 33.0211 25.4673 32.9797 25.2249 32.9891C24.8781 32.9905 24.537 33.0746 24.2319 33.2339C23.9312 33.3994 23.6651 33.6177 23.4473 33.8775L20.4193 33.455L21.543 26.8136H29.9774V29.5499H24.2564L23.9499 31.4018C24.3272 31.2315 24.7215 31.0991 25.1268 31.0069C25.5013 30.918 25.8854 30.873 26.271 30.8727C26.8409 30.8492 27.4099 30.9359 27.9446 31.1278C28.4793 31.3197 28.969 31.6129 29.3848 31.9901C29.7771 32.3549 30.0861 32.7947 30.2923 33.2816C30.4985 33.7684 30.5972 34.2914 30.5821 34.8172C30.5827 35.6181 30.3733 36.406 29.9733 37.1074ZM41.2926 37.8181C40.508 38.8553 39.1568 39.3817 37.2389 39.3975C36.34 39.4337 35.4451 39.2632 34.6277 38.9C33.9572 38.5633 33.3927 38.0588 32.9931 37.4391C32.6387 36.865 32.3951 36.2335 32.2739 35.5754C32.095 34.7136 32.0088 33.8363 32.0165 32.9575C32.0165 30.6094 32.4537 28.9655 33.3282 28.0258C34.2027 27.086 35.5376 26.6069 37.3329 26.5885C38.0532 26.5667 38.7718 26.6711 39.4537 26.8965C39.9547 27.0696 40.4147 27.3382 40.8063 27.6862C41.1324 27.9897 41.408 28.34 41.6236 28.7247C41.8415 29.1321 42.0049 29.5646 42.1098 30.0119C42.3496 30.9551 42.469 31.9231 42.4654 32.8943C42.4681 35.1371 42.0772 36.7783 41.2926 37.8181ZM45.6405 32.685C45.1254 32.4217 44.7104 32.0068 44.4554 31.5005C44.1999 30.9888 44.0672 30.428 44.0672 29.8599C44.0672 29.2917 44.1999 28.7309 44.4554 28.2193C44.708 27.7113 45.1237 27.2958 45.6405 27.0347C46.2228 26.7359 46.8732 26.5826 47.5325 26.5885C47.9939 26.5647 48.4556 26.6307 48.8901 26.7826C49.3247 26.9346 49.7232 27.1693 50.062 27.473C50.375 27.7861 50.6185 28.1578 50.7773 28.5652C50.9361 28.9727 51.007 29.4072 50.9855 29.8421C51.007 30.277 50.9361 30.7115 50.7773 31.119C50.6185 31.5264 50.375 31.8981 50.062 32.2112C49.7237 32.5156 49.3253 32.7509 48.8906 32.9028C48.456 33.0548 47.994 33.1204 47.5325 33.0957C46.876 33.1114 46.2258 32.9689 45.6405 32.6811V32.685ZM49.3795 39.7924H47.557L54.9125 26.5925H56.7555L49.3795 39.7924ZM59.2727 38.8921C58.9335 39.1978 58.5339 39.4341 58.0978 39.5868C57.6617 39.7395 57.1982 39.8054 56.735 39.7805C56.0803 39.7953 55.4323 39.65 54.8512 39.358C54.3341 39.096 53.9174 38.6809 53.6621 38.1735C53.4092 37.6618 53.2779 37.1019 53.2779 36.5349C53.2779 35.9678 53.4092 35.4079 53.6621 34.8962C53.9174 34.3888 54.3341 33.9737 54.8512 33.7117C55.4323 33.4197 56.0803 33.2744 56.735 33.2892C57.197 33.2622 57.6599 33.3256 58.0959 33.4756C58.5319 33.6255 58.9322 33.8589 59.2727 34.1618C59.87 34.816 60.1996 35.6585 60.1996 36.5309C60.1996 37.4033 59.87 38.2458 59.2727 38.9V38.8921Z" fill="white"/>
</svg>
