<svg width="80" height="80" viewBox="0 0 80 80" fill="none" xmlns="http://www.w3.org/2000/svg">
<path d="M44.9466 51.9473C44.675 51.6499 44.3313 51.4275 43.9762 51.2421C43.2031 50.8389 42.3575 50.5944 41.5179 50.3736V56.8793C42.8807 56.7253 44.4451 56.2308 45.1606 54.9586C45.5022 54.3509 45.5702 53.6042 45.431 52.9278C45.3556 52.5612 45.1997 52.2248 44.9466 51.9473Z" fill="white"/>
<path d="M45.1534 54.9714C45.1562 54.9667 45.1578 54.9637 45.1608 54.9586C45.1584 54.9628 45.1559 54.967 45.1534 54.9714Z" fill="white"/>
<path d="M35.126 41.5474C34.8918 41.8895 34.7448 42.2781 34.7042 42.6912C34.6636 43.1052 34.6864 43.5657 34.8437 43.9554C34.9934 44.3267 35.3071 44.6009 35.6309 44.8216C35.9942 45.0687 36.3938 45.2618 36.8007 45.4254C37.1421 45.5628 37.5262 45.6942 37.9401 45.8212V39.9343C36.8943 40.1575 35.7517 40.6339 35.126 41.5474Z" fill="white"/>
<path d="M45.1877 54.9105C45.1791 54.9257 45.1699 54.9416 45.1608 54.9584C45.1714 54.9389 45.1798 54.9245 45.1877 54.9105Z" fill="white"/>
<path d="M45.2219 54.8502C45.2246 54.8453 45.225 54.8448 45.2219 54.8502V54.8502Z" fill="white"/>
<path d="M43.8099 19.4607C49.3424 14.8131 53.0392 4.34277 50.7642 3.88482C47.7413 3.27611 41.1771 5.94524 38.0043 6.41551C33.5042 6.95885 28.603 1.5357 25.8519 4.55856C23.6151 7.01635 27.4556 15.9545 33.4642 19.8485C15.5378 28.659 -9.65883 72.8885 34.2981 76.0978C95.12 80.5385 64.6643 28.0463 43.8099 19.4607ZM49.0333 54.3422C48.8463 56.0665 47.9325 57.6259 46.5665 58.6845C45.1242 59.8023 43.3152 60.3222 41.5178 60.4678V62.373C41.5178 62.8828 41.2951 63.3759 40.9135 63.7133C40.389 64.1774 39.6182 64.2919 38.9816 63.9986C38.3531 63.7094 37.9401 63.0648 37.9401 62.373V60.2907C37.6319 60.2322 37.3259 60.1625 37.0235 60.0795C35.3437 59.618 33.7856 58.7184 32.6474 57.3873C32.0804 56.7238 31.6182 55.971 31.2985 55.1583C31.215 54.9459 31.1406 54.7296 31.0754 54.5109C31.0163 54.3129 30.9554 54.1117 30.9343 53.9053C30.8989 53.5591 30.9675 53.2059 31.1289 52.8975C31.4606 52.2631 32.1595 51.88 32.8731 51.9436C33.5754 52.0059 34.191 52.4933 34.4121 53.1628C34.4802 53.369 34.5264 53.5803 34.6029 53.7843C34.6787 53.9869 34.7702 54.1839 34.8779 54.3715C35.0904 54.7408 35.3567 55.0813 35.6634 55.3768C36.2955 55.9859 37.1007 56.3817 37.9401 56.6172V49.5389C36.2988 49.114 34.6046 48.5651 33.2492 47.5113C32.5906 46.9989 32.0316 46.3623 31.6656 45.6088C31.2793 44.8136 31.1193 43.9277 31.1128 43.0477C31.1062 42.1542 31.2759 41.2686 31.6486 40.4545C31.9977 39.6923 32.5004 39.008 33.1166 38.4407C34.4343 37.2279 36.1846 36.5514 37.9403 36.3029V36.1472V34.3251C37.9403 33.8155 38.1629 33.3223 38.5445 32.9848C39.0692 32.5209 39.8397 32.4062 40.4764 32.6996C41.1048 32.9889 41.518 33.6334 41.518 34.3251V36.1472V36.2921C41.7519 36.3216 41.9851 36.3568 42.2172 36.3989C43.9412 36.7109 45.6273 37.4228 46.8881 38.6657C47.4853 39.2544 47.9742 39.9559 48.318 40.7208C48.414 40.9342 48.4981 41.1526 48.5708 41.3752C48.6385 41.5828 48.7067 41.7966 48.739 42.0132C48.7907 42.3591 48.738 42.7164 48.5899 43.0328C48.2867 43.6811 47.6066 44.0938 46.8911 44.0632C46.1881 44.0326 45.5512 43.5748 45.2994 42.9176C45.2245 42.7222 45.187 42.5153 45.1105 42.3204C45.0333 42.1231 44.9334 41.9348 44.8182 41.757C44.5944 41.4113 44.3043 41.1149 43.9732 40.8707C43.2561 40.3413 42.3864 40.0654 41.5174 39.9112V46.6849C42.5502 46.9322 43.5838 47.2019 44.5733 47.5921C46.0688 48.1818 47.486 49.0861 48.3023 50.5119C48.1756 50.2898 48.0524 50.0733 48.3066 50.5193C48.5561 50.9574 48.437 50.7486 48.3117 50.529C48.9611 51.6736 49.1745 53.0421 49.0333 54.3422Z" fill="white"/>
<path d="M45.1345 55.0046C45.124 55.0233 45.115 55.0397 45.1078 55.0522C45.1139 55.0414 45.1232 55.0251 45.1345 55.0046Z" fill="white"/>
</svg>
